Coordinates
version=1
nRows=17
nColumns=36
inDegrees=yes

Units are S.I. units (second, meters, Newtons, ...)
If the header above contains a line with 'inDegrees', this indicates whether rotational values are in degrees (yes) or radians (no).

endheader
time	pelvis_tilt	pelvis_list	pelvis_rotation	pelvis_tx	pelvis_ty	pelvis_tz	hip_flexion_r	hip_adduction_r	hip_rotation_r	knee_angle_r	knee_angle_r_beta	ankle_angle_r	subtalar_angle_r	mtp_angle_r	hip_flexion_l	hip_adduction_l	hip_rotation_l	knee_angle_l	knee_angle_l_beta	ankle_angle_l	subtalar_angle_l	mtp_angle_l	lumbar_extension	lumbar_bending	lumbar_rotation	arm_flex_r	arm_add_r	arm_rot_r	elbow_flex_r	pro_sup_r	arm_flex_l	arm_add_l	arm_rot_l	elbow_flex_l	pro_sup_l
      2.90416670	     -9.03064091	     -1.34450752	      2.34586948	      0.38588267	      0.79186350	     -0.05862806	     46.20234031	     -9.73740889	      0.50919139	     66.69848034	      1.16410809	     24.92961018	    -12.43022105	     -7.49999987	     43.33860154	     -9.01343978	     -0.61362815	     68.36302593	      1.19315989	     30.83508216	     -8.21392162	     -7.49999987	    -10.74635539	      3.94782653	     -6.19795700	    -16.31327873	    -17.21172128	    -11.88629360	    130.32240857	     78.25154173	     -7.29873116	     -1.89782691	    -16.38988595	    128.77729210	     70.51226205
      2.90833330	     -9.01297400	     -1.30702526	      2.32310734	      0.38629839	      0.79122840	     -0.05847952	     46.10286727	     -9.71632430	      0.63621794	     66.59512011	      1.16230411	     24.75991892	    -12.37606733	     -7.49999987	     43.28531526	     -9.14280274	     -0.72950095	     68.32789950	      1.19254682	     30.79448959	     -7.91519051	     -7.49999987	    -10.79767132	      3.95707694	     -6.07724657	    -16.29655986	    -17.35641346	    -11.76593301	    130.45186587	     77.25265370	     -7.18355987	     -1.72353823	    -16.66757148	    128.81380397	     69.68481342
      2.91250000	     -8.64746313	     -1.27913526	      2.40493044	      0.38644315	      0.79780490	     -0.05866747	     45.29240311	     -9.69803556	      0.48819501	     65.90356779	      1.15023425	     24.56777505	    -12.51592419	     -7.49999987	     42.58579294	     -9.24502170	     -0.95311607	     67.65500175	      1.18080254	     30.40649010	     -7.70207598	     -7.49999987	    -11.22060223	      3.97855379	     -6.25803467	    -16.01806494	    -17.33824702	    -11.91341365	    130.02676763	     77.71924855	     -6.92452433	     -1.47601710	    -17.09631867	    128.64379147	     69.80043345
      2.91666670	     -8.55336603	     -1.22671111	      2.36174794	      0.38677723	      0.79697527	     -0.05858502	     44.97916865	     -9.66942382	      0.61056770	     65.64311819	      1.14568854	     24.47593867	    -12.37544759	     -7.49999987	     42.19211898	     -9.24072105	     -1.04389467	     67.17875972	      1.17249054	     30.32387492	     -7.74851899	     -7.49999987	    -11.35505883	      3.84814377	     -6.38399856	    -15.87128937	    -17.36753607	    -12.05195859	    129.82697269	     77.18930512	     -6.79824447	     -1.54853488	    -17.37982455	    128.82938099	     69.36813303
      2.92083330	     -8.57763549	     -1.17526079	      2.39560295	      0.38680226	      0.79447827	     -0.05877551	     45.00495184	     -9.72796703	      0.71882867	     65.78045787	      1.14808557	     24.70706999	    -12.16889657	     -7.49999987	     42.13679302	     -9.18638135	     -1.08572953	     67.02925287	      1.16988116	     30.45887626	     -7.77594904	     -7.49999987	    -11.37128636	      3.71513555	     -6.46171789	    -15.72372189	    -17.41682976	    -12.08345826	    129.78946287	     76.36698578	     -6.74362459	     -1.74166641	    -17.60633972	    129.15853159	     68.80750768
      2.92500000	     -8.62342611	     -1.16962751	      2.58837497	      0.39120486	      0.79726431	     -0.05440207	     44.67461641	     -9.61561208	      0.50398697	     65.53999491	      1.14388870	     24.73147258	    -12.15631748	     -7.49999987	     41.79205917	     -9.26370580	     -0.95897992	     66.50022453	      1.16064787	     30.43688212	     -7.63300510	     -7.49999987	    -10.90171736	      3.54725367	     -6.52581339	    -15.71247279	    -17.32865810	    -12.11925024	    129.80076058	     76.44872297	     -6.65218232	     -2.00073809	    -17.77744118	    129.31692381	     68.83769410
      2.92916670	     -8.46369419	     -1.22285516	      2.80409718	      0.39098275	      0.79822898	     -0.05462785	     44.14601813	     -9.38092537	      0.40613365	     65.25371528	      1.13889218	     24.89592631	    -12.73428554	     -7.49999987	     41.46905100	     -9.34663180	     -0.84223647	     66.24698441	      1.15622800	     30.38428221	     -7.44027971	     -7.49999987	    -11.02260441	      3.41191256	     -7.73796051	    -14.52259210	    -17.26374518	    -11.30251119	    128.85981282	     80.66452777	     -7.45298375	     -1.92355492	    -19.27030065	    130.26113091	     70.58719058
      2.93333330	     -8.55040654	     -1.23892017	      2.98243578	      0.39096255	      0.79759864	     -0.05493303	     44.19420567	     -9.15576820	      0.55308235	     65.31103704	      1.13989263	     24.64935893	    -13.46392964	     -7.49999987	     41.48508697	     -9.49873208	     -1.13014780	     66.08794640	      1.15345226	     30.38104781	     -7.26972759	     -7.49999987	    -10.67099858	      3.23290254	     -7.83329020	    -14.57597460	    -17.20193403	    -11.86292304	    128.87811078	     78.72015632	     -7.45369624	     -2.00855385	    -18.89198827	    130.49626391	     69.46995507
      2.93750000	     -8.64380229	     -1.28245655	      3.08822225	      0.39064421	      0.79818809	     -0.05510458	     44.19058651	     -9.06858904	      0.52908678	     65.21234193	      1.13817008	     24.53876471	    -13.76515663	     -7.49999987	     41.52797093	     -9.65953364	     -1.38031982	     65.86706983	      1.14959724	     30.28548400	     -7.11893212	     -7.49999987	    -10.35423656	      3.24583449	     -7.77758519	    -14.28544879	    -17.31299458	    -12.62215599	    128.76615091	     77.49073235	     -7.24787494	     -2.04501435	    -18.55865405	    130.72776315	     68.80642602
      2.94166670	     -8.53639144	     -1.35164937	      3.16235783	      0.39064828	      0.80407073	     -0.05551164	     43.57229216	     -8.87592755	      0.50270108	     64.27005473	      1.12172407	     24.22392095	    -14.05748993	     -7.49999987	     41.16009570	     -9.68114571	     -1.54677546	     65.33436577	      1.14029980	     29.84128478	     -6.96659056	     -7.49999987	    -10.40383277	      3.29581132	     -7.73460558	    -13.89564289	    -17.30808758	    -13.17206319	    128.54658087	     77.92467773	     -6.98983706	     -2.08536543	    -18.60596227	    130.75057077	     69.16568517
      2.94583330	     -8.35868604	     -1.46943332	      3.29763112	      0.39036402	      0.80447663	     -0.05559184	     42.96680611	     -8.67901134	      0.63541314	     63.58448844	      1.10975868	     23.76468064	    -14.45037124	     -7.49999987	     40.88169066	     -9.73284848	     -1.66351162	     64.96332815	      1.13382397	     29.41903014	     -7.01968695	     -7.49999987	    -10.56720691	      3.46410340	     -7.55539494	    -13.66319514	    -17.39366454	    -13.68987836	    128.52759463	     77.52038719	     -6.82416420	     -2.07965869	    -18.40666300	    130.71327381	     68.99216450
      2.95000000	     -8.43418525	     -1.44877761	      3.46025670	      0.39021678	      0.80144245	     -0.05593485	     43.08297850	     -8.79601978	      0.67632152	     63.48178708	      1.10796620	     23.46165625	    -15.14889256	     -7.49999987	     40.88499905	     -9.52485939	     -1.53144160	     64.74420581	      1.12999956	     29.32240664	     -7.04109125	     -7.49999987	    -10.45189453	      3.37058071	     -7.70972058	    -13.71537299	    -17.24709203	    -13.97398273	    128.82372105	     78.22793790	     -6.69616898	     -2.27658879	    -18.38381425	    131.03891208	     69.49743087
      2.95416670	     -8.39018212	     -1.35946018	      3.60311563	      0.39011719	      0.80822813	     -0.05608352	     42.73753929	     -8.84448405	      0.76237992	     62.82905146	      1.09657381	     23.01022319	    -15.66618954	     -7.49999987	     40.52815577	     -9.18673290	     -1.38241431	     64.06031734	      1.11806346	     28.99386404	     -7.09785635	     -7.49999987	    -10.45559076	      3.30163570	     -7.78400967	    -13.64206321	    -16.98151422	    -14.27040259	    128.73622843	     78.37921409	     -6.53636863	     -2.43239523	    -18.36627368	    130.92615257	     69.57027816
      2.95833330	     -8.37023292	     -1.31877008	      3.72719145	      0.39014672	      0.80777653	     -0.05592038	     42.57462677	     -8.86899339	      0.77165586	     62.51474139	      1.09108807	     22.45141127	    -16.30570252	     -7.49999987	     40.27444087	     -9.10558626	     -1.52463364	     63.58748242	      1.10981093	     28.80428548	     -7.05532099	     -7.49999987	    -10.50307009	      3.18856959	     -7.73094427	    -13.49137440	    -17.03220802	    -14.77253772	    128.88284614	     77.63071494	     -6.25307285	     -2.64226095	    -18.03579680	    131.10125543	     69.16171995
      2.96250000	     -8.17170218	     -1.25193345	      3.87926995	      0.39027006	      0.81450664	     -0.05615560	     41.90250426	     -8.91534805	      0.67268815	     61.70526555	      1.07696005	     22.11451056	    -16.57868742	     -7.49999987	     39.57962845	     -8.91427999	     -1.60618963	     62.60506927	      1.09266459	     28.32543291	     -6.98254637	     -7.49999987	    -10.74733260	      3.12692604	     -7.80283287	    -13.17340356	    -17.25784789	    -15.08668559	    128.83917044	     77.84563591	     -6.05184433	     -2.67895243	    -17.77672404	    130.83111150	     69.25857081
      2.96666670	     -7.90161629	     -1.23866459	      3.98895730	      0.39020006	      0.81417544	     -0.05612825	     41.21106205	     -8.79002860	      0.81272198	     61.10998952	      1.06657052	     21.98866229	    -17.04040631	     -7.49999987	     39.13354161	     -8.88643782	     -1.64987906	     62.15999930	      1.08489665	     27.98725563	     -7.18545871	     -7.49999987	    -11.13695796	      3.11649240	     -7.68880308	    -13.08929496	    -17.33460159	    -15.58452923	    129.24051352	     77.35938737	     -5.66940400	     -2.83651921	    -17.44714490	    130.95786499	     68.93358753
      2.97083330	     -7.87751031	     -1.18014600	      4.07967415	      0.39026107	      0.81747248	     -0.05659145	     40.80296856	     -8.77209866	      0.87584342	     60.41876236	      1.05450633	     21.54981844	    -17.45795380	     -7.49999987	     38.72222797	     -8.63960273	     -1.55959265	     61.34765444	      1.07071856	     27.48867243	     -7.43227920	     -7.49999987	    -11.26395682	      3.02009733	     -7.87288079	    -13.29234720	    -17.13418519	    -15.75805338	    129.76990069	     77.28572004	     -5.61443894	     -3.17506490	    -17.36880772	    131.24570874	     68.87100733
